<svg xmlns="http://www.w3.org/2000/svg" viewBox="0 0 14.82 22.44"><g id="Layer_2" data-name="Layer 2"><g id="Layer_1-2" data-name="Layer 1"><path d="M14.11,12.65a5.43,5.43,0,0,1-2.76,3.52,2.48,2.48,0,0,0,1.45.16,3.55,3.55,0,0,1-3,1.7,1.33,1.33,0,0,1-1.31-1.2S8.25,11,8.09,6.91c1.23,0,3.51-.12,4-.17,0,0,.11,0,.11-.1V5.37S10.06,5.13,8,5.08c0-.35,0-.67,0-.94a2.12,2.12,0,1,0-1.15,0c0,.27,0,.59,0,.94-2,0-4.2.29-4.2.29V6.64c0,.1.11.1.11.1.51,0,2.79.13,4,.17-.16,4.05-.37,9.92-.37,9.92A1.33,1.33,0,0,1,5.05,18a3.57,3.57,0,0,1-3-1.7,2.48,2.48,0,0,0,1.45-.16A5.43,5.43,0,0,1,.71,12.65,5.43,5.43,0,0,0,.6,17.84a2.67,2.67,0,0,0,.55-1,6.29,6.29,0,0,0,2.56,3c1.82,1,3,1.15,3.7,2.67.67-1.52,1.88-1.66,3.71-2.67a6.3,6.3,0,0,0,2.55-3,2.67,2.67,0,0,0,.55,1A5.4,5.4,0,0,0,14.11,12.65ZM8.47,1.1a1.39,1.39,0,0,1,.47,1,1.54,1.54,0,0,1-.55,1.07h0a1.91,1.91,0,0,0,.45-1.07,1.79,1.79,0,0,0-.38-1Zm-2-.27A1.19,1.19,0,0,1,8.07.58h0A2.09,2.09,0,0,0,6.44.83ZM5.46,2v-.1A2.25,2.25,0,0,1,6,.8L6.05.72l0,0L6,.8a2,2,0,0,0-.43,1.13V2a2.86,2.86,0,0,0,.52,1.54A2.15,2.15,0,0,1,5.46,2Zm.61.08A1.34,1.34,0,1,1,8,3.34c0-.08,0-.14,0-.16a.47.47,0,0,0-.53-.45.47.47,0,0,0-.53.45,1.26,1.26,0,0,1,0,.16A1.35,1.35,0,0,1,6.07,2.11ZM7.78,4.83s-.15-1.52-.17-1.61,0-.18-.2-.18a.17.17,0,0,0-.17.14l0,1.9H7.05c0-1.09,0-1.8,0-1.82a.33.33,0,0,1,.34-.34h0a.29.29,0,0,1,.29.26l.08,1.65h0ZM2.85,5.5h0v0l0,0s3.74-.19,4.53-.19,4.37.19,4.4.19,0,0,0,0h0a0,0,0,0,1,0,0h0s-3.61-.2-4.4-.2-4.49.2-4.53.2a0,0,0,0,1,0,0Zm9,.59v.12l-4.27.11Zm-5.26,12c0-.17,0-.32.07-.4v-.06h0c0,.61-.13,1.43-.27,1.43s0-.17,0-.17a.68.68,0,0,0,.08-.19s0-.09,0-.14v0c0-.05,0-.1,0-.15l0-.16A.43.43,0,0,0,6.63,18.11ZM3.88,18l.14.06.05,0a4.7,4.7,0,0,0,1.26.18c1.34,0,1.26-2.51,1.26-2.51.06,1.42-.18,2.08-.5,2.39a.31.31,0,0,1-.11.09,1,1,0,0,1-.4.16H5.3a1.2,1.2,0,0,1-.31,0l-.25-.06-.16-.05-.51-.18L3.84,18ZM1.49,14.86h0A8.25,8.25,0,0,0,2.7,16h0c-.59-.15-1-.92-1.17-1.17l0-.07ZM.6,17.29h0a5.18,5.18,0,0,1-.2-3.5h0A4.77,4.77,0,0,0,.65,17,1.36,1.36,0,0,0,1,16.65H1A1.47,1.47,0,0,1,.6,17.29Zm6.48,3.44h0c-.53-.8-1.31-.84-2-1.14A5.23,5.23,0,0,1,2.52,18,7.67,7.67,0,0,1,.73,14.24h0a23.12,23.12,0,0,0,.93,2.31,6.57,6.57,0,0,0,2.26,2.34,4.08,4.08,0,0,0,2.34.61.46.46,0,0,0,.34-.13,1.37,1.37,0,0,0,.28-.92S7,11.42,7,6.92h.18Zm.33-14c-.7,0-4.5-.17-4.54-.17a.09.09,0,0,1-.08-.09h0v0a0,0,0,0,0,0,0,.08.08,0,0,1,.08,0s3.83.17,4.53.17,4.36-.17,4.4-.17a.1.1,0,0,1,.09.09h0v0a.09.09,0,0,1-.07.06S8.11,6.73,7.41,6.73ZM12.16,16h0a8.72,8.72,0,0,0,1.22-1.18l0-.07h0s0,0,0,.07C13.2,15.11,12.75,15.88,12.16,16Zm-3.93-.24S8.15,18.3,9.5,18.3a4.65,4.65,0,0,0,1.25-.18L11,18h0l-.23.11c-.14.05-.31.12-.51.18l-.16.05-.25.06a1.2,1.2,0,0,1-.31,0H9.24a1,1,0,0,1-.4-.16.44.44,0,0,1-.11-.09C8.41,17.87,8.17,17.21,8.23,15.79Zm.17,3.29a.09.09,0,0,1-.06,0h0l0,0a.17.17,0,0,0,0-.05h0l0-.06h0a3.72,3.72,0,0,1-.14-1.22h0a5.22,5.22,0,0,0,.3,1.26h0l0,.08S8.47,19.08,8.4,19.08Zm4.27-1.5a4.73,4.73,0,0,1-.37.4l-.13.13-.35.32-.31.26-.19.14-.16.13-.16.1-.15.09a9.32,9.32,0,0,1-1.07.44c-.31.13-.63.21-.94.32h0c-.25.09-.26-.07-.26-.1h0c0-.15.14-.25.28-.31a4,4,0,0,0,2.05-.61,7,7,0,0,0,1-.74l.31-.29.15-.16c.1-.1.19-.21.28-.31a4.7,4.7,0,0,0,.46-.67l.09-.17,0-.09c.43-.9.89-2.22.89-2.22h0A8.35,8.35,0,0,1,12.67,17.58Zm1.55-.29a1.41,1.41,0,0,1-.33-.42l-.09-.22h0a2,2,0,0,0,.22.27.53.53,0,0,0,.15.12,4.77,4.77,0,0,0,.25-3.25h0A5.18,5.18,0,0,1,14.22,17.29Zm-.89-2.43h0Z"/></g></g></svg>