<svg xmlns="http://www.w3.org/2000/svg" viewBox="0 0 231.45 76.848"><defs><style>.a{fill:#004c97;}.b{fill:#87969f;}</style></defs><g transform="translate(0 0.1)"><g transform="translate(0 0.42)"><path class="a" d="M0,.7V76.572H75.937V.7ZM73.729,74.494H2.079V2.649h71.65Z" transform="translate(0 -0.7)"/><path class="a" d="M74.112,6.4,6.1,6.53v68.4l68.012-.13V6.4ZM44.686,22.77l.585-8.834h0V23.16Zm.585,7.925v0Zm-.65-17.149-.585,8.7L42.8,21.406l1.3-8.25Zm-2.144-1.494.78.585-1.3,8.25-.974-.65,1.884-7.925M39.619,41.673a11.084,11.084,0,0,0,3.183-.455l-.39,6.106a3.389,3.389,0,0,1-1.884.39,2.918,2.918,0,0,1-1.819-.52Zm.974-30.986-2.339,7.665L35.462,16.4,40.074,10.3ZM28.836,16.4l-9.874,8.25H16.623L20.2,10.233l8.7,6.041,3.638,2.468-4.482,5.911H20.651l8.964-7.73Zm-13.382,8.25H13.765L17.988,8.739l1.039.715Zm14.226-7.8-.844-.65,2.793-2.339.909.585ZM35.4,16.4,33.123,19.2l-.715-.455,2.209-2.858Zm3.9-6.691-4.677,6.171-2.079-1.429,6.106-5.132ZM15.844,7.374l1.234.844L12.6,24.719H7.139V7.374m11.238,0-.39,1.364-.909-.585.195-.844Zm2.468,0-.715,2.858-1.1-.715.585-2.144h1.234Zm15.525,0,1.429,1.3-6.106,5.2-9.484-6.5ZM7.139,25.5H33.253v.78H7.139Zm10.718,5h.13M7.139,38.945a3.865,3.865,0,0,0,1.624.26L7.139,45.181Zm0,10.2,2.728-10a13.961,13.961,0,0,0,2.209-.325l-2.468,10.2L7.139,52.261Zm0,4.612,1.884-2.468-1.884,7.73Zm24.035,3.768,2.4-10.2a2.955,2.955,0,0,1-1.819.325c-1.3-.065-1.429-.39-1.429-.39l2.209-7.081a13.808,13.808,0,0,0,2.533.974l-1.494,6.171m-2.4,10.2a4.878,4.878,0,0,1-2.079.26,2.849,2.849,0,0,1-1.819-.585l2.793-8.964a2.21,2.21,0,0,0,1.559.455,5.139,5.139,0,0,0,1.754-.26h0m-2.468,10.2-1.884,7.99-.13.13a4.169,4.169,0,0,1-2.6.325c-1.819-.13-1.949-.455-1.949-.455h-.065l2.533-8.185h0s.26.325,1.689.325a9.97,9.97,0,0,0,2.4-.13m-2.079,9.094L27.472,73.5H22.21l1.754-5.781a6.268,6.268,0,0,0,2.274.325,5.46,5.46,0,0,0,2.339-.325Zm5.781.13L33.708,73.5H28.381l1.364-5.651a12.482,12.482,0,0,0,2.209.325c1.169,0,2.6-.39,2.663-.325m1.429-9.224-1.234,7.925M37.67,48.429l-1.364,8.834v.065a4.76,4.76,0,0,1-2.079.455,4.373,4.373,0,0,1-1.949-.39h-.065l2.144-9.029a2.477,2.477,0,0,0,1.364.325,6.63,6.63,0,0,0,1.949-.26m.13-1.169s-.13.39-1.559.39a2.908,2.908,0,0,1-1.689-.325l1.429-5.976a12.077,12.077,0,0,0,2.728.325L37.8,47.259M34.747,66.617a4.054,4.054,0,0,1-2.468.52,5.3,5.3,0,0,1-2.274-.52l1.949-8.12a3.05,3.05,0,0,0,1.819.39,9.089,9.089,0,0,0,2.274-.26Zm2.209-8.055s.325.325,2.144.325a5.817,5.817,0,0,0,2.6-.325m0,0-.585,8.185a8.585,8.585,0,0,1-2.793.585,6.071,6.071,0,0,1-2.663-.78l1.3-8.055m4.807-1.039a4.965,4.965,0,0,1-2.339.39,3.187,3.187,0,0,1-2.209-.65h0l1.429-8.9a4.278,4.278,0,0,0,1.949.39,9.4,9.4,0,0,0,1.819-.13l-.65,8.9Zm-.65,10.393-.39,5.651H34.552l.909-5.716a10.617,10.617,0,0,0,2.533.52,11.444,11.444,0,0,0,3.118-.455m.26-37.352L39.619,41.673h-.844L40.463,30.5H38.58l-2.6,10.848-.909-.26L37.54,30.5H35.462l-2.988,9.614-.78-.52L34.487,30.5H31.564c-.52.78-2.079,3.833-.52,8.445.065.195.26.39.65.65L21.3,73.438H7.139V63.045l3.378-13.771L18.7,38.425a12.411,12.411,0,0,0,11.693.65A12.206,12.206,0,0,1,30.59,30.5H17.923a9.663,9.663,0,0,0-.78,6.626,3.3,3.3,0,0,0,.844.78L11.1,47l2.014-8.38c1.884-.455,3.378-.974,3.313-1.3-.585-2.533.26-5.911.39-6.626l.065-.195H7.139v-.844H34.747l1.494-5H29.161l4.092-5.392,3.9,2.663,1.169-3.638.78.52,2.339-7.6.585.39-1.884,7.925L39.1,18.807,37.93,22.38l-.78-.52-.844,2.663h.974l-1.559,5H37.8l1.169-5h1.039l.195-.585-.974-.65-.26,1.234H37.345L38,22.38l1.3.909h0l.844-3.833.909.585L40.2,23.874l.844.585H40.009l-1.169,5h1.819l1.364-8.77.844.585-1.3,8.185h2.144l.455-7.34.65.39-.39,6.886h.585v.844h-.65l-.65,10.523a18.012,18.012,0,0,0,1.689-.65V73.178l-3.7.065,2.014-32.415-.844.39L43.582,30.5ZM52.286,73.438V30.695H53.52l.26,42.743Zm2.988-41.509V30.695h0Zm.13,32.155a4.114,4.114,0,0,0,1.169-1.234c.065-.13.974.13,1.884-.13a2.827,2.827,0,0,0,1.429-1.1l5.457-1.429.78,13.382H55.469L55.4,64.019m.065-2.988M55.4,61.1,55.339,39.2a9.889,9.889,0,0,0,.195,2.014c1.819.065,6.561-1.819,6.236-2.274a8.1,8.1,0,0,1-.195-8.25h1.039c-.26.26-2.6,3.183,0,7.925a3.443,3.443,0,0,0,1.494.909l.78,13.122-6.626,6.756a2.552,2.552,0,0,0-1.494.455,3.41,3.41,0,0,0-1.1,1.364m9.289-7.21.325,5.2-5.2,1.559a1.048,1.048,0,0,0-.195-.585,1.33,1.33,0,0,0-.52-.52Zm7.8,19.488H67.227l-.844-13.641,6.236-1.689L72.748,57l-6.431,1.884-.39-5.911,6.821-6.821V73.5Zm0-28.712v-.13l-6.886,6.951-.715-11.693a13.346,13.346,0,0,0,7.34.13,6.2,6.2,0,0,0,.195-1.624v6.366ZM56.378,7.439v8.9H55.209v-8.9Zm5.781,0L63.2,24.654H55.274V17.638l.065,2.533,2.728-.065s.13.065.325-.195.13-.39.13-.39V16.858a1.143,1.143,0,0,1,.065-.39l.13-.13,1.1-1.169.195-.195c.065-.065.065-.39.065-.39l.065-7.146Zm2.533,0L69.5,24.654H64.239l.065.974h8.185v.78h-8.12l.195,3.443h7.99l.195.39v.455l-8.12-.065.52,9.224-.974-.26-.455-8.964H55.534v-.78h8.185l-.195-3.443H59.5v-.78h4.027l-.065-.974.78-.065-1.1-17.149Zm8.055-.065V24.654H70.6L65.928,7.439Z" transform="translate(-2.137 -2.697)"/></g><g transform="translate(86.786 28.092)"><path class="b" d="M150.619,43.755h.455l.26,5.911h-.715a6.234,6.234,0,0,0-6.3-5.651c-5.327,0-6.951,5.262-6.951,9.744s1.754,9.289,7.016,9.289c4.157,0,5.716-2.988,6.626-6.561h.52v6.561h-.39l-.715-1.494a10.084,10.084,0,0,1-6.626,2.209c-6.041,0-10.2-3.9-10.2-10A10.137,10.137,0,0,1,144.058,43.3a10.351,10.351,0,0,1,6.041,1.819Z" transform="translate(-133.6 -43.3)"/><path class="b" d="M177.956,60.656a6.91,6.91,0,0,1-7.21,6.821,7,7,0,0,1-7.146-6.951c0-3.833,3.508-6.626,7.146-6.626C174.448,53.965,177.956,56.823,177.956,60.656Zm-11.433,0c0,2.858.844,6.106,4.352,6.106,3.248,0,4.092-3.313,4.092-5.911,0-2.858-.78-6.236-4.352-6.236C167.368,54.615,166.523,58.057,166.523,60.656Z" transform="translate(-144.112 -47.014)"/><path class="b" d="M198.971,63.444c0,1.949-.26,2.858,2.079,2.988v.585c-1.1,0-2.209-.065-3.248-.13-1.169,0-2.274.065-3.443.13v-.585c2.209-.13,2.079-.844,2.079-2.858V59.741c0-2.079.065-5-2.728-5a3.806,3.806,0,0,0-3.833,4.027v4.612c0,1.949-.26,2.858,2.079,2.988v.585c-1.1,0-2.209-.065-3.248-.13-1.169,0-2.274.065-3.443.13v-.585c2.209-.13,2.079-.844,2.079-2.858v-3.7a32.845,32.845,0,0,0-.13-3.638c-.26-1.1-1.039-.974-2.014-.974v-.585c1.559-.195,2.663-.65,4.092-.909l.39,2.728h.065a5.186,5.186,0,0,1,4.807-2.728c2.858,0,4.417,1.3,4.417,4.092Z" transform="translate(-151.681 -46.944)"/><path class="b" d="M211.955,67.317h-.325l-.13-4.287h.585c.455,1.884,1.494,3.768,3.7,3.768,1.3,0,2.533-.65,2.533-2.079,0-1.689-1.754-2.4-2.988-3.053-1.754-.909-3.573-1.884-3.573-4.092a3.553,3.553,0,0,1,3.7-3.573,6.688,6.688,0,0,1,2.923.715L218.97,54h.39l-.065,3.7h-.585c-.52-1.494-1.169-3.053-3.053-3.053a1.715,1.715,0,0,0-1.884,1.624c0,1.559,1.624,2.079,2.793,2.728,2.079,1.1,3.963,1.819,3.963,4.547,0,2.468-2.079,3.963-4.417,3.963a5.635,5.635,0,0,1-3.313-1.1Z" transform="translate(-160.897 -47.049)"/><path class="b" d="M225.5,53.687v-.52a7.881,7.881,0,0,0,3.638-3.768h.455v3.508h3.378v.78h-3.378V62.2c0,1.364.26,2.728,1.819,2.728a2.555,2.555,0,0,0,2.144-1.364l.52.39c-.52,1.429-2.014,1.884-3.443,1.884-2.144,0-3.638-.844-3.638-3.053V53.687Z" transform="translate(-165.802 -45.437)"/><path class="b" d="M243.542,50.251v9.614c.065,1.949-.26,2.858,2.079,2.988v.585c-1.039,0-2.144-.065-3.183-.13-1.169,0-2.339.065-3.508.13v-.585c2.209-.13,2.014-.844,2.079-2.858V55.707a27.161,27.161,0,0,0-.13-3.313c-.195-.715-1.494-.715-2.079-.65V51.16Zm-3.248-5.327a1.608,1.608,0,0,1,1.624-1.624,1.593,1.593,0,0,1,.065,3.183A1.611,1.611,0,0,1,240.294,44.924Z" transform="translate(-170.463 -43.3)"/><path class="b" d="M248.5,53.687v-.52a7.881,7.881,0,0,0,3.638-3.768h.455v3.508h3.378v.78h-3.378V62.2c0,1.364.26,2.728,1.819,2.728a2.555,2.555,0,0,0,2.144-1.364l.52.39c-.52,1.429-2.014,1.884-3.443,1.884-2.144,0-3.638-.844-3.638-3.053V53.687Z" transform="translate(-173.862 -45.437)"/><path class="b" d="M266.072,62.485c0,1.754.13,4.157,2.468,4.157a4.318,4.318,0,0,0,4.092-4.417V58.2c0-2.274.195-2.988-2.274-3.313V54.3c.844.065,1.624.065,2.468.13.78-.065,1.559-.065,2.339-.13v9.614c0,.78,0,2.014,1.1,2.014.39,0,.715-.065,1.1-.065v.715l-4.157,1.1-.65-2.793a6.227,6.227,0,0,1-5,2.793c-2.988,0-4.092-1.624-4.092-4.287V58.263c0-2.274.195-2.988-2.274-3.313v-.585c.844,0,1.624.065,2.468.13.78,0,1.559-.065,2.339-.13v8.12Z" transform="translate(-178.312 -47.154)"/><path class="b" d="M285.3,53.687v-.52a7.881,7.881,0,0,0,3.638-3.768h.455v3.508h3.378v.78h-3.378V62.2c0,1.364.26,2.728,1.819,2.728a2.555,2.555,0,0,0,2.144-1.364l.52.39c-.52,1.429-2.014,1.884-3.443,1.884-2.144,0-3.638-.844-3.638-3.053V53.687Z" transform="translate(-186.757 -45.437)"/><path class="b" d="M303.342,50.251v9.614c.065,1.949-.26,2.858,2.079,2.988v.585c-1.039,0-2.144-.065-3.183-.13-1.169,0-2.339.065-3.508.13v-.585c2.209-.13,2.014-.844,2.079-2.858V55.707a27.158,27.158,0,0,0-.13-3.313c-.195-.715-1.494-.715-2.079-.65V51.16Zm-3.248-5.327a1.608,1.608,0,0,1,1.624-1.624,1.593,1.593,0,0,1,.065,3.183A1.611,1.611,0,0,1,300.094,44.924Z" transform="translate(-191.417 -43.3)"/><path class="b" d="M323.056,60.656a6.91,6.91,0,0,1-7.211,6.821,7,7,0,0,1-7.146-6.951c0-3.833,3.508-6.626,7.146-6.626C319.613,53.965,323.056,56.823,323.056,60.656Zm-11.368,0c0,2.858.844,6.106,4.352,6.106,3.248,0,4.027-3.313,4.027-5.911,0-2.858-.78-6.236-4.352-6.236C312.533,54.615,311.688,58.057,311.688,60.656Z" transform="translate(-194.956 -47.014)"/><path class="b" d="M345.671,63.444c0,1.949-.26,2.858,2.079,2.988v.585c-1.1,0-2.209-.065-3.248-.13-1.169,0-2.274.065-3.443.13v-.585c2.209-.13,2.079-.844,2.079-2.858V59.741c0-2.079.065-5-2.728-5a3.806,3.806,0,0,0-3.833,4.027v4.612c0,1.949-.26,2.858,2.079,2.988v.585c-1.1,0-2.209-.065-3.248-.13-1.169,0-2.274.065-3.443.13v-.585c2.209-.13,2.079-.844,2.079-2.858v-3.7a32.841,32.841,0,0,0-.13-3.638c-.26-1.1-1.039-.974-2.014-.974v-.585c1.559-.195,2.663-.65,4.092-.909l.39,2.728h.065a5.186,5.186,0,0,1,4.807-2.728c2.858,0,4.417,1.3,4.417,4.092v5.651Z" transform="translate(-203.086 -46.944)"/></g><g transform="translate(86.201 56.545)"><path class="b" d="M154.4,103.015c0,2.858.065,2.988,2.923,3.248v.715c-1.559,0-2.988-.065-4.482-.13-1.494,0-2.988.065-4.482.13v-.715c2.858-.26,2.923-.39,2.923-3.248V90.023h-.065l-3.378,8.315-3.7,8.575h-.325l-7.275-16.954h-.065V102.5c0,2.339.455,3.573,2.858,3.7v.715c-1.1,0-2.209-.065-3.313-.13-1.039,0-2.079.065-3.118.13V106.2c2.274,0,2.663-1.364,2.663-2.728V90.8a7.04,7.04,0,0,0-.26-1.949c-.39-1.039-1.624-1.039-2.6-1.039V87.1c1.039.065,2.014.065,2.988.13.909,0,1.819-.065,2.728-.13l6.561,15.265L151.343,87.1c.909.065,1.884.065,2.793.13.974,0,1.884-.065,2.923-.13v.715c-.974,0-2.144,0-2.6,1.039a10.028,10.028,0,0,0-.325,3.313v10.848Z" transform="translate(-132.7 -87.1)"/><path class="b" d="M175.272,105.785c0,1.754.13,4.157,2.468,4.157a4.318,4.318,0,0,0,4.092-4.417V101.5c0-2.274.195-2.923-2.274-3.313V97.6c.844.065,1.624.065,2.468.13.78-.065,1.559-.065,2.339-.13v9.614c0,.78,0,2.014,1.1,2.014.39,0,.78-.065,1.1-.065v.715l-4.157,1.1-.65-2.793a6.227,6.227,0,0,1-5,2.793c-2.988,0-4.092-1.624-4.092-4.287v-5.132c0-2.274.195-2.923-2.274-3.313v-.585c.844,0,1.624.065,2.468.13.779,0,1.559-.065,2.339-.13v8.12Z" transform="translate(-145.91 -90.779)"/><path class="b" d="M197.655,110.617h-.325l-.13-4.287h.585c.455,1.884,1.494,3.768,3.7,3.768,1.3,0,2.533-.65,2.533-2.079,0-1.689-1.754-2.4-2.988-3.053-1.754-.909-3.573-1.884-3.573-4.092a3.553,3.553,0,0,1,3.7-3.573,6.688,6.688,0,0,1,2.923.715l.585-.715h.39L205,101h-.585c-.52-1.494-1.169-3.053-3.053-3.053a1.715,1.715,0,0,0-1.884,1.624c0,1.559,1.624,2.079,2.793,2.728,2.079,1.1,3.963,1.819,3.963,4.547,0,2.468-2.079,3.963-4.417,3.963a5.635,5.635,0,0,1-3.313-1.1Z" transform="translate(-155.301 -90.674)"/><path class="b" d="M225.082,108.278a6.323,6.323,0,0,1-5.327,2.533A6.441,6.441,0,0,1,213,104.381a6.936,6.936,0,0,1,6.691-7.081c2.923,0,5.716,1.624,5.716,4.872,0,.39-.455.26-.715.26h-8.575l-.13,1.429c0,2.858,1.494,5.976,4.677,5.976a5.118,5.118,0,0,0,3.768-2.209Zm-3.9-6.691c.455,0,1.494.13,1.494-.585a2.765,2.765,0,0,0-2.923-3.053c-2.209,0-3.118,1.689-3.508,3.638Z" transform="translate(-160.838 -90.674)"/><path class="b" d="M236.872,105.785c0,1.754.13,4.157,2.468,4.157a4.318,4.318,0,0,0,4.092-4.417V101.5c0-2.274.195-2.923-2.274-3.313V97.6c.844.065,1.624.065,2.468.13.78-.065,1.559-.065,2.339-.13v9.614c0,.78,0,2.014,1.1,2.014.39,0,.715-.065,1.1-.065v.715l-4.157,1.1-.65-2.793a6.227,6.227,0,0,1-5,2.793c-2.988,0-4.092-1.624-4.092-4.287v-5.132c0-2.274.195-2.923-2.274-3.313v-.585c.844,0,1.624.065,2.468.13.779,0,1.559-.065,2.339-.13v8.12Z" transform="translate(-167.495 -90.779)"/><path class="b" d="M263.377,106.779c0,1.949-.325,2.858,2.014,2.988v.585c-1.1,0-2.144-.065-3.248-.13-1.1,0-2.274.065-3.378.13v-.585c2.209-.13,2.079-.844,2.079-2.858v-3.7a32.849,32.849,0,0,0-.13-3.638c-.26-1.1-1.039-.974-2.014-.974v-.585c1.559-.195,2.663-.65,4.092-.909l.325,2.4a5.433,5.433,0,0,1,4.482-2.4c1.754,0,3.508.65,4.092,2.4a5.227,5.227,0,0,1,4.547-2.4,4.518,4.518,0,0,1,3.508,1.429c.78.974.78,2.728.78,3.963v4.222c0,1.949-.325,2.858,2.014,2.988v.585c-1.1,0-2.209-.065-3.313-.13-1.1,0-2.209.065-3.313.13V109.7c2.209-.13,2.014-.844,2.079-2.858v-3.768c0-2.079.26-5.067-2.793-5.067a3.375,3.375,0,0,0-2.923,1.949,7.586,7.586,0,0,0-.39,3.053v3.573c.065,1.949-.325,2.858,2.014,2.988v.585c-1.1,0-2.209-.065-3.248-.13-1.1,0-2.209.065-3.378.13v-.585c2.209-.13,2.014-.844,2.079-2.858v-3.768c0-2.079.26-5.067-2.793-5.067a3.375,3.375,0,0,0-2.923,1.949,7.586,7.586,0,0,0-.39,3.053v3.9Z" transform="translate(-176.851 -90.604)"/></g><g transform="translate(86.201 -0.1)"><path class="b" d="M151.343,12.423c0,5.457-2.144,8.25-7.8,8.25-5.327,0-7.925-1.884-7.925-7.275V6.251a15.562,15.562,0,0,0-.325-3.963c-.39-1.039-1.624-1.039-2.6-1.039V.6c1.429,0,2.858.065,4.222.13,1.494,0,2.988-.065,4.547-.13v.715c-.974,0-2.209,0-2.6,1.039a19.353,19.353,0,0,0-.26,3.963v7.34c0,3.833,1.494,5.976,5.587,5.976s6.171-2.144,6.171-6.171V6.9a18.8,18.8,0,0,0-.325-4.287c-.39-1.234-1.624-1.364-2.793-1.364V.6c1.169,0,2.274.065,3.443.13,1.1,0,2.209-.065,3.313-.13v.715c-.974,0-2.014,0-2.4,1.1a17.7,17.7,0,0,0-.39,4.547v5.457Z" transform="translate(-132.7 -0.145)"/><path class="b" d="M165.9,14.061h.715c.585,2.988,2.209,5.522,5.651,5.522,2.339,0,4.287-1.3,4.287-3.7,0-2.728-2.339-3.768-4.547-4.677-2.728-1.039-5.587-2.468-5.587-5.911,0-3.378,2.663-5.392,5.911-5.392a7.888,7.888,0,0,1,4.482,1.494l.715-1.169h.325l.13,5.2h-.715c-.715-2.468-2.079-4.742-5-4.742a3.268,3.268,0,0,0-3.508,3.183c0,2.339,2.144,3.183,3.963,3.963,3.118,1.3,6.561,2.858,6.561,6.756s-3.638,5.781-7.146,5.781a7.93,7.93,0,0,1-5.2-1.819l-.715,1.234H165.9V14.061Z" transform="translate(-144.334 0.1)"/><path class="b" d="M189.4,14.061h.715c.585,2.988,2.209,5.522,5.651,5.522,2.339,0,4.287-1.3,4.287-3.7,0-2.728-2.339-3.768-4.547-4.677-2.728-1.039-5.586-2.468-5.586-5.911,0-3.378,2.663-5.392,5.911-5.392a7.888,7.888,0,0,1,4.482,1.494l.715-1.169h.325l.13,5.2h-.715c-.715-2.468-2.079-4.742-5-4.742a3.268,3.268,0,0,0-3.508,3.183c0,2.339,2.144,3.183,3.963,3.963,3.118,1.3,6.561,2.858,6.561,6.756s-3.638,5.781-7.146,5.781a7.93,7.93,0,0,1-5.2-1.819l-.715,1.234H189.4Z" transform="translate(-152.568 0.1)"/></g></g></svg>